<svg width="539" height="319" viewBox="0 0 539 319" fill="none" xmlns="http://www.w3.org/2000/svg">
<path d="M391.733 173.259L143.559 168.385L146.46 20.6987L188.186 0.92399L395.039 4.98665L391.733 173.259" fill="#ECECEA"/>
<path d="M393.41 170.837H145.187V24.2L189.687 2.53335H393.41V170.837Z" fill="#C2DFF5"/>
<path d="M376.735 158.365L159.411 155.551L162.712 24.0254L178.854 12.576L379.188 15.4854L376.735 158.365Z" fill="#A2CCEE"/>
<path d="M379.188 155.551H159.411V26.7L172.688 15.4853H379.188V155.551Z" fill="white"/>
<path d="M159.411 33.384L145.187 24.2L189.687 2.53338L182.299 12.6267L178.854 12.5761L174.752 15.4854H172.688L159.411 26.7V33.384Z" fill="#ABC6DE"/>
<path d="M180.206 15.4854H174.752L178.854 12.576L182.299 12.6267L180.206 15.4854" fill="#8FB7E1"/>
<path d="M164.164 36.0987C163.816 36.0987 163.464 36.0014 163.151 35.8L159.411 33.384V26.7L172.688 15.4853H174.752H180.206L165.674 35.3334C165.308 35.832 164.742 36.0987 164.164 36.0987Z" fill="#DFDFDD"/>
<path d="M145.188 24.2L162.974 31.972C164.184 32.5014 165.598 32.1587 166.431 31.1347L189.688 2.53335L145.188 24.2Z" fill="#A2CCEE"/>
<path d="M226.435 94.5215L227.516 104.193L182.627 109.211L181.19 101.789L202.559 57.6762L212.358 56.5807L203.731 75.5259L193.185 98.2383L226.435 94.5215ZM215.012 56.2842L221.976 118.59L209.652 119.968L202.687 57.6618L215.012 56.2842Z" fill="#F36058"/>
<path d="M296.814 79.7298L295.153 90.4527C294.432 95.105 293.314 99.042 291.798 102.264C290.286 105.457 288.427 107.987 286.221 109.853C284.048 111.695 281.605 112.929 278.894 113.554C276.183 114.18 273.267 114.251 270.146 113.767C267.65 113.381 265.372 112.708 263.313 111.75C261.258 110.764 259.471 109.455 257.952 107.826C256.46 106.2 255.251 104.255 254.324 101.991C253.429 99.7031 252.88 97.0617 252.676 94.0671C252.472 91.0725 252.66 87.703 253.24 83.9585L254.902 73.2356C255.622 68.5833 256.736 64.6746 258.244 61.5095C259.783 58.3204 261.64 55.8049 263.814 53.963C266.016 52.1256 268.47 50.9082 271.177 50.3109C273.888 49.6853 276.804 49.6142 279.924 50.0977C282.421 50.4845 284.682 51.1689 286.709 52.1511C288.768 53.1092 290.559 54.389 292.083 55.9903C293.607 57.5917 294.816 59.5365 295.711 61.8247C296.61 64.0845 297.161 66.7117 297.365 69.7063C297.574 72.6725 297.39 76.0137 296.814 79.7298ZM282.605 90.1642L284.774 76.1649C285.122 73.9239 285.297 71.9468 285.301 70.2335C285.334 68.5247 285.199 67.0514 284.897 65.8136C284.599 64.5474 284.153 63.4906 283.558 62.6432C282.963 61.7957 282.238 61.1315 281.383 60.6504C280.528 60.1694 279.547 59.8431 278.441 59.6717C277.051 59.4563 275.775 59.5346 274.614 59.9066C273.481 60.2829 272.453 61.0097 271.531 62.0868C270.613 63.1356 269.804 64.6079 269.104 66.5037C268.436 68.3756 267.887 70.7015 267.456 73.4815L265.287 87.4808C264.94 89.7219 264.748 91.711 264.711 93.4482C264.702 95.1898 264.845 96.7079 265.138 98.0024C265.464 99.2729 265.908 100.344 266.47 101.215C267.065 102.063 267.79 102.727 268.645 103.208C269.529 103.694 270.523 104.022 271.63 104.193C272.991 104.404 274.239 104.322 275.372 103.945C276.538 103.545 277.582 102.806 278.504 101.729C279.459 100.628 280.272 99.1273 280.944 97.2271C281.616 95.3269 282.17 92.9726 282.605 90.1642Z" fill="#F36058"/>
<path d="M358.118 103.019L356.177 112.554L311.916 103.544L312.828 96.0402L346.711 60.6214L356.374 62.5883L342.345 77.9685L325.334 96.3448L358.118 103.019ZM358.99 63.1208L346.484 124.555L334.332 122.081L346.838 60.6472L358.99 63.1208Z" fill="#F36058"/>
<path d="M380.299 20.6801C379.915 20.6801 379.542 20.6294 379.188 20.5334V15.4854L376.164 15.4414C376.61 13.5707 378.292 12.1801 380.299 12.1801C382.646 12.1801 384.548 14.0827 384.548 16.4294C384.548 18.7774 382.646 20.6801 380.299 20.6801" fill="#ABC6DE"/>
<path d="M379.188 15.4854H376.155C376.158 15.4707 376.162 15.456 376.164 15.4414L379.188 15.4854Z" fill="#8FB7E1"/>
<path d="M379.188 20.5333C377.379 20.0453 376.05 18.392 376.05 16.4293C376.05 16.1053 376.086 15.7893 376.155 15.4853H379.188V20.5333Z" fill="#DFDFDD"/>
<path d="M384.16 15.4853C384.16 17.8333 382.258 19.7347 379.91 19.7347C377.562 19.7347 375.66 17.8333 375.66 15.4853C375.66 13.1387 377.562 11.2347 379.91 11.2347C382.258 11.2347 384.16 13.1387 384.16 15.4853Z" fill="#689BD8"/>
<path d="M382.306 15.4853C382.306 16.808 381.232 17.8813 379.91 17.8813C378.587 17.8813 377.514 16.808 377.514 15.4853C377.514 14.1627 378.587 13.0893 379.91 13.0893C381.232 13.0893 382.306 14.1627 382.306 15.4853Z" fill="#79ACE1"/>
<path d="M380.16 13.36C380.782 13.36 381.344 13.604 381.771 13.9934C381.331 13.4467 380.664 13.0894 379.91 13.0894C378.587 13.0894 377.514 14.1627 377.514 15.4854C377.514 16.1854 377.82 16.8094 378.299 17.248C377.97 16.8374 377.764 16.324 377.764 15.756C377.764 14.4334 378.836 13.36 380.16 13.36" fill="#A2CBEE"/>
<path d="M382.499 165.628C380.154 165.628 378.25 163.724 378.25 161.377C378.25 159.029 380.154 157.128 382.499 157.128C384.847 157.128 386.75 159.029 386.75 161.377C386.75 163.724 384.847 165.628 382.499 165.628Z" fill="#ABC6DE"/>
<path d="M386.362 160.433C386.362 162.78 384.458 164.683 382.111 164.683C379.764 164.683 377.862 162.78 377.862 160.433C377.862 158.085 379.764 156.183 382.111 156.183C384.458 156.183 386.362 158.085 386.362 160.433Z" fill="#689BD8"/>
<path d="M384.507 160.433C384.507 161.756 383.435 162.829 382.111 162.829C380.787 162.829 379.716 161.756 379.716 160.433C379.716 159.111 380.787 158.037 382.111 158.037C383.435 158.037 384.507 159.111 384.507 160.433Z" fill="#79ACE1"/>
<path d="M382.362 158.308C382.984 158.308 383.547 158.552 383.972 158.941C383.532 158.395 382.867 158.037 382.111 158.037C380.787 158.037 379.716 159.111 379.716 160.433C379.716 161.133 380.02 161.757 380.5 162.195C380.17 161.785 379.966 161.271 379.966 160.704C379.966 159.381 381.038 158.308 382.362 158.308" fill="#A2CBEE"/>
<path d="M159.604 160.905C157.258 160.905 155.355 159.003 155.355 156.655C155.355 154.373 157.154 152.511 159.411 152.409V155.551L163.724 155.607C163.808 155.941 163.854 156.293 163.854 156.655C163.854 159.003 161.952 160.905 159.604 160.905" fill="#ABC6DE"/>
<path d="M163.724 155.607L159.411 155.551H163.71C163.714 155.569 163.719 155.588 163.724 155.607Z" fill="#8FB7E1"/>
<path d="M163.71 155.551H159.411V152.409C159.475 152.407 159.539 152.405 159.604 152.405C161.57 152.405 163.223 153.739 163.71 155.551Z" fill="#DFDFDD"/>
<path d="M163.466 155.711C163.466 158.057 161.563 159.961 159.216 159.961C156.868 159.961 154.966 158.057 154.966 155.711C154.966 153.363 156.868 151.461 159.216 151.461C161.563 151.461 163.466 153.363 163.466 155.711Z" fill="#689BD8"/>
<path d="M161.611 155.711C161.611 157.033 160.539 158.107 159.216 158.107C157.892 158.107 156.82 157.033 156.82 155.711C156.82 154.388 157.892 153.315 159.216 153.315C160.539 153.315 161.611 154.388 161.611 155.711Z" fill="#79ACE1"/>
<path d="M159.466 153.585C160.088 153.585 160.651 153.829 161.076 154.219C160.638 153.672 159.971 153.315 159.216 153.315C157.892 153.315 156.82 154.388 156.82 155.711C156.82 156.411 157.126 157.035 157.604 157.473C157.275 157.063 157.07 156.549 157.07 155.981C157.07 154.659 158.143 153.585 159.466 153.585" fill="#A2CBEE"/>
<path d="M538.598 275.296H428.826C428.623 266.215 426.07 258.177 422.739 251.111H538.598V275.296M414.163 275.296H0V251.111H198.428C200.452 252.143 202.81 252.535 205.207 252.535C206.907 252.535 218.991 252.535 236.256 252.535C236.794 252.535 237.323 252.535 237.87 252.535C239.243 252.535 240.648 252.535 242.08 252.535C242.602 252.535 243.138 252.535 243.664 252.535C244.538 252.535 245.422 252.535 246.314 252.535H252.6C253.395 252.535 254.2 252.535 255.006 252.535C255.528 252.535 256.063 252.535 256.591 252.535C257.751 252.535 258.922 252.535 260.103 252.535C260.678 252.535 261.263 252.535 261.842 252.535C273.764 252.535 286.63 252.535 299.459 252.535C309.963 252.535 323.287 252.535 323.287 252.535C319.627 254.069 316.068 256.087 316.767 257.952C317.799 260.711 321.838 261.897 326.819 261.897C329.49 261.897 332.43 261.556 335.326 260.933C341.607 259.583 377.358 259.119 394.478 251.111H406.188C410.37 258.311 413.879 266.225 414.163 275.296Z" fill="url(#paint0_radial_1004_1062)"/>
<path d="M117.708 229.179C117.708 229.179 114.766 193.745 120.015 185.684C124.898 178.183 138.07 181.844 135.483 193.932C133.8 201.791 126.212 228.235 126.212 228.235L117.708 229.179Z" fill="url(#paint1_linear_1004_1062)"/>
<path d="M122.91 186.479C124.802 183.572 127.938 182.348 130.922 182.635C127.287 180.916 122.542 181.801 120.015 185.684C114.766 193.745 117.708 229.179 117.708 229.179L120.519 228.865C120.076 222.852 118.21 193.699 122.91 186.479Z" fill="#9EDA7E"/>
<path d="M123.215 183.776L121.744 180.879C121.636 180.664 121.374 180.577 121.159 180.687C120.944 180.796 120.859 181.057 120.967 181.272L122.436 184.171C122.546 184.385 122.808 184.471 123.023 184.361C123.238 184.253 123.323 183.991 123.215 183.776" fill="#78C767"/>
<path d="M128.807 183.041L129.1 179.807C129.122 179.567 128.946 179.355 128.706 179.333C128.466 179.311 128.254 179.488 128.232 179.728L127.939 182.963C127.918 183.203 128.094 183.415 128.334 183.436C128.574 183.459 128.786 183.281 128.807 183.041Z" fill="#78C767"/>
<path d="M133.127 185.648L134.614 182.759C134.723 182.544 134.639 182.281 134.424 182.172C134.211 182.061 133.948 182.145 133.838 182.36L132.352 185.249C132.242 185.463 132.327 185.727 132.54 185.836C132.755 185.947 133.018 185.861 133.127 185.648Z" fill="#78C767"/>
<path d="M135.039 189.641L137.364 187.372C137.537 187.204 137.54 186.928 137.372 186.756C137.204 186.584 136.928 186.58 136.756 186.748L134.429 189.017C134.257 189.185 134.255 189.461 134.423 189.633C134.591 189.805 134.867 189.809 135.039 189.641Z" fill="#78C767"/>
<path d="M131.798 201.364L134.92 202.26C135.152 202.327 135.394 202.193 135.459 201.961C135.526 201.729 135.392 201.488 135.16 201.423L132.038 200.527C131.807 200.46 131.566 200.593 131.499 200.825C131.432 201.056 131.567 201.297 131.798 201.364Z" fill="#78C767"/>
<path d="M131.036 206.86L134.123 205.847C134.352 205.771 134.476 205.525 134.401 205.296C134.325 205.068 134.08 204.943 133.851 205.019L130.764 206.031C130.536 206.107 130.411 206.352 130.487 206.581C130.561 206.809 130.808 206.935 131.036 206.86" fill="#78C767"/>
<path d="M129.951 210.468L132.159 210.797C132.398 210.832 132.619 210.668 132.655 210.431C132.69 210.192 132.526 209.971 132.288 209.935L130.08 209.605C129.842 209.569 129.62 209.735 129.584 209.972C129.55 210.211 129.714 210.432 129.951 210.468Z" fill="#78C767"/>
<path d="M134.792 193.745L137.323 192.469C137.538 192.361 137.624 192.099 137.515 191.884C137.407 191.669 137.146 191.583 136.93 191.691L134.4 192.967C134.186 193.076 134.099 193.337 134.207 193.552C134.316 193.767 134.578 193.853 134.792 193.745Z" fill="#78C767"/>
<path d="M133.18 197.804L136.014 197.759C136.255 197.755 136.447 197.556 136.443 197.316C136.439 197.075 136.24 196.883 136 196.887L133.167 196.933C132.926 196.936 132.735 197.135 132.738 197.376C132.742 197.616 132.94 197.808 133.18 197.804Z" fill="#78C767"/>
<path d="M121.487 186.94L118.789 185.128C118.589 184.995 118.319 185.048 118.185 185.247C118.051 185.447 118.104 185.717 118.304 185.852L121 187.663C121.2 187.797 121.471 187.744 121.605 187.544C121.739 187.344 121.687 187.073 121.487 186.94" fill="#78C767"/>
<path d="M108.272 224.528C108.272 224.528 94.2508 186.223 97.6095 175.709C100.733 165.927 116.417 165.975 117.228 180.135C117.755 189.34 117.393 220.901 117.393 220.901L108.272 224.528" fill="url(#paint2_linear_1004_1062)"/>
<path d="M101.054 175.709C102.264 171.917 105.363 169.611 108.749 169.023C104.207 168.224 99.2255 170.645 97.6095 175.709C94.2508 186.223 108.272 224.528 108.272 224.528L111.287 223.329C108.97 216.808 98.0468 185.124 101.054 175.709Z" fill="#9EDA7E"/>
<path d="M99.5948 189.42H96.4841C96.2081 189.42 95.9841 189.644 95.9841 189.92C95.9841 190.196 96.2081 190.42 96.4841 190.42H99.5948C99.8708 190.42 100.095 190.196 100.095 189.92C100.095 189.644 99.8708 189.42 99.5948 189.42Z" fill="#78C767"/>
<path d="M100.76 195.88L97.0469 196.199C96.7723 196.223 96.5683 196.464 96.5923 196.74C96.6149 197.015 96.8576 197.219 97.1323 197.195L100.847 196.876C101.122 196.852 101.326 196.609 101.302 196.335C101.278 196.06 101.036 195.856 100.76 195.88Z" fill="#78C767"/>
<path d="M102.362 201.869L98.8843 203.215C98.627 203.315 98.499 203.604 98.599 203.861C98.699 204.119 98.9883 204.247 99.2456 204.147L102.722 202.803C102.98 202.703 103.108 202.413 103.008 202.156C102.908 201.897 102.619 201.769 102.362 201.869Z" fill="#78C767"/>
<path d="M100.57 172.627L98.0642 169.867C97.8789 169.663 97.5629 169.647 97.3576 169.833C97.1536 170.019 97.1389 170.335 97.3242 170.539L99.8296 173.299C100.015 173.503 100.331 173.519 100.535 173.332C100.74 173.147 100.755 172.831 100.57 172.627Z" fill="#78C767"/>
<path d="M106.535 170.115L105.875 166.447C105.826 166.175 105.566 165.993 105.295 166.043C105.023 166.091 104.842 166.351 104.891 166.623L105.551 170.292C105.599 170.564 105.859 170.744 106.131 170.695C106.403 170.647 106.583 170.387 106.535 170.115" fill="#78C767"/>
<path d="M112.106 171.685L112.871 168.037C112.928 167.768 112.755 167.503 112.484 167.445C112.214 167.389 111.95 167.561 111.892 167.832L111.127 171.48C111.07 171.751 111.243 172.015 111.514 172.072C111.783 172.129 112.048 171.956 112.106 171.685Z" fill="#78C767"/>
<path d="M115.434 175.523L117.318 172.307C117.458 172.068 117.378 171.761 117.139 171.621C116.9 171.483 116.595 171.563 116.455 171.8L114.571 175.017C114.431 175.255 114.511 175.561 114.75 175.701C114.987 175.84 115.294 175.76 115.434 175.523" fill="#78C767"/>
<path d="M115.409 189.476L119.136 189.519C119.412 189.521 119.639 189.3 119.641 189.024C119.645 188.748 119.424 188.521 119.148 188.519L115.42 188.476C115.144 188.473 114.917 188.695 114.915 188.971C114.912 189.247 115.133 189.473 115.409 189.476Z" fill="#78C767"/>
<path d="M116.236 195.788L119.344 193.729C119.574 193.577 119.638 193.267 119.484 193.036C119.332 192.807 119.022 192.743 118.792 192.896L115.684 194.955C115.454 195.107 115.391 195.417 115.543 195.647C115.696 195.877 116.007 195.94 116.236 195.788Z" fill="#78C767"/>
<path d="M116.134 200.109L118.675 199.803C118.948 199.769 119.144 199.52 119.111 199.245C119.078 198.972 118.828 198.776 118.555 198.809L116.014 199.117C115.739 199.151 115.543 199.399 115.576 199.673C115.61 199.948 115.859 200.143 116.134 200.109Z" fill="#78C767"/>
<path d="M116.408 180.137L118.819 177.957C119.024 177.772 119.04 177.456 118.855 177.251C118.67 177.047 118.354 177.031 118.148 177.216L115.738 179.396C115.532 179.581 115.518 179.897 115.702 180.103C115.887 180.307 116.203 180.323 116.408 180.137Z" fill="#78C767"/>
<path d="M115.859 185.119L118.979 184.207C119.244 184.129 119.396 183.852 119.319 183.587C119.242 183.321 118.963 183.169 118.699 183.247L115.578 184.159C115.312 184.236 115.16 184.513 115.238 184.779C115.316 185.044 115.594 185.196 115.859 185.119Z" fill="#78C767"/>
<path d="M99.6202 176.652L96.0855 175.467C95.8242 175.379 95.5402 175.52 95.4522 175.781C95.3642 176.044 95.5055 176.327 95.7682 176.415L99.3015 177.6C99.5642 177.688 99.8468 177.547 99.9348 177.284C100.023 177.023 99.8815 176.74 99.6202 176.652" fill="#78C767"/>
<path d="M98.8923 181.485L95.1843 181.865C94.9096 181.895 94.7096 182.14 94.7389 182.415C94.7669 182.689 95.0123 182.889 95.2869 182.86L98.9949 182.48C99.2696 182.452 99.4696 182.207 99.4403 181.932C99.4123 181.657 99.1669 181.457 98.8923 181.485Z" fill="#78C767"/>
<path d="M103.902 177.044C103.902 177.42 103.598 177.724 103.222 177.724C102.847 177.724 102.542 177.42 102.542 177.044C102.542 176.668 102.847 176.364 103.222 176.364C103.598 176.364 103.902 176.668 103.902 177.044Z" fill="#78C767"/>
<path d="M109.924 180.223C109.924 180.851 109.416 181.359 108.788 181.359C108.162 181.359 107.654 180.851 107.654 180.223C107.654 179.596 108.162 179.087 108.788 179.087C109.416 179.087 109.924 179.596 109.924 180.223Z" fill="#78C767"/>
<path d="M114.164 192.321C113.437 193.311 112.047 193.524 111.057 192.797C110.068 192.071 109.855 190.68 110.581 189.691C111.308 188.701 112.699 188.488 113.688 189.215C114.677 189.941 114.891 191.332 114.164 192.321Z" fill="#78C767"/>
<path d="M110.104 201.076C109.594 201.772 108.735 202.011 108.188 201.609C107.64 201.207 107.611 200.317 108.123 199.621C108.634 198.924 109.492 198.687 110.039 199.087C110.586 199.489 110.615 200.38 110.104 201.076Z" fill="#78C767"/>
<path d="M107.323 184.696C107.323 185.232 106.888 185.667 106.352 185.667C105.817 185.667 105.383 185.232 105.383 184.696C105.383 184.161 105.817 183.727 106.352 183.727C106.888 183.727 107.323 184.161 107.323 184.696Z" fill="#78C767"/>
<path d="M97.0896 217.835L100.366 254.575H105.254L104.908 252.661H113.762L113.93 254.575H121.498L121.906 252.661H128.846L128.744 254.575H133.164L136.439 217.835H97.0896" fill="#996C4A"/>
<path d="M103.734 217.835H97.0896L100.366 254.575H105.254L104.908 252.661H107.451L103.734 217.835Z" fill="#AE7B53"/>
<path d="M97.4376 221.739L135.887 224.036L136.439 217.835H97.0896L97.4376 221.739" fill="url(#paint3_linear_1004_1062)"/>
<path d="M137.016 220.991L137.612 214.303H95.9163L96.5136 220.991H137.016Z" fill="#D08045"/>
<path d="M102.476 214.303H95.9163L96.5136 220.991H103.272L102.476 214.303Z" fill="#DE9962"/>
<path d="M384.911 318.996C370.631 318.996 357.067 312.58 347.676 300.888C345.142 297.735 345.647 293.123 348.802 290.587C350.152 289.501 351.774 288.972 353.384 288.972C355.528 288.972 357.655 289.909 359.103 291.712C361.46 294.648 364.054 296.983 366.774 298.805C367.343 302.401 367.483 308.532 363.668 313.929C367.558 315.899 371.692 317.297 375.962 318.121C378.488 313.395 379.562 308.413 379.735 303.867C381.54 304.153 383.331 304.285 385.075 304.285C385.628 304.285 386.176 304.272 386.72 304.247C387.359 308.568 387.363 313.841 385.436 318.987C386.494 318.975 387.55 318.935 388.611 318.853C387.374 318.948 386.14 318.996 384.911 318.996M397.528 317.324C398.084 317.175 398.623 316.995 399.168 316.827C400.19 311.148 399.892 305.728 399.115 301.22C401.126 300.279 402.968 299.147 404.619 297.847C406.732 301.703 408.707 306.917 408.646 312.733C413.135 310.131 417.014 306.805 420.131 302.923C418.39 296.029 415.163 290.407 412.623 286.784C413.107 285.411 413.471 283.977 413.706 282.493C414.098 280.013 414.236 277.617 414.163 275.296C413.879 266.225 410.37 258.311 406.188 251.111C404.968 249.012 403.692 246.973 402.422 244.985C406.24 239.853 408.207 233.817 408.84 227.583C410.08 229.803 411.686 232.296 413.339 234.865C416.374 239.58 419.85 244.979 422.739 251.111C426.07 258.177 428.623 266.215 428.826 275.296C428.894 278.34 428.698 281.503 428.179 284.784C425.698 300.471 413.955 312.936 397.528 317.324M393.471 303.237C393.55 303.217 393.628 303.196 393.707 303.176C393.724 303.171 393.74 303.167 393.758 303.161C393.74 303.167 393.724 303.171 393.707 303.176C393.628 303.196 393.55 303.217 393.471 303.237Z" fill="url(#paint4_linear_1004_1062)"/>
<path d="M326.819 261.897C321.838 261.897 317.799 260.711 316.767 257.952C316.068 256.087 319.627 254.069 323.287 252.535C323.287 252.535 339.556 245.963 342.66 239.72C344.787 235.445 345.7 215.069 357.264 209.863C357.264 209.863 342.727 209.863 332.25 229.811C324.364 244.828 306.991 251.873 299.459 252.535C286.63 252.535 273.764 252.535 261.842 252.535C262.688 250.741 264.168 249.84 264.26 249.789C264.64 249.573 264.774 249.089 264.558 248.708C264.412 248.452 264.144 248.308 263.868 248.308C263.738 248.308 263.604 248.341 263.483 248.409C263.355 248.477 261.074 249.796 260.103 252.535C258.922 252.535 257.751 252.535 256.591 252.535C257.459 248.589 260.924 247.061 261.092 246.991C261.495 246.816 261.682 246.353 261.511 245.949C261.383 245.649 261.084 245.465 260.778 245.465C260.676 245.465 260.574 245.485 260.476 245.528C260.268 245.615 255.918 247.543 255.006 252.535C254.2 252.535 253.395 252.535 252.6 252.535C252.6 252.535 254.196 243.556 264.219 241.08L264.23 241.067C303.428 232.821 284.58 186.719 284.482 186.477C287.095 185.549 289.879 184.525 292.754 183.444C296.93 187.936 304.024 196.519 308.046 206.741C310.204 212.224 313.068 214.123 315.67 214.123C318.643 214.123 321.272 211.647 322.116 209.211C323.448 205.375 320.851 185.097 314.355 175.045C316.587 174.164 318.766 173.3 320.862 172.473C321.363 172.276 321.878 172.084 322.407 171.897C323.482 171.519 324.615 171.165 325.796 170.837C331.687 169.208 338.828 168.241 346.422 168.241C353.287 168.241 360.52 169.032 367.523 170.837C369.788 171.421 372.027 172.111 374.223 172.915C385.259 176.952 395.187 183.861 401.451 194.603C406.394 203.077 410.046 215.693 408.84 227.583C408.207 233.817 406.24 239.853 402.422 244.985C402.152 245.348 401.872 245.708 401.584 246.061C399.988 248.016 397.53 249.683 394.478 251.111C377.358 259.119 341.607 259.583 335.326 260.933C332.43 261.556 329.49 261.897 326.819 261.897ZM328.844 256.369C328.758 256.369 328.67 256.383 328.586 256.413C328.386 256.485 324.452 257.989 322.24 261.444C322.796 261.559 323.358 261.665 323.97 261.732C325.962 259.121 329.086 257.917 329.127 257.903C329.536 257.753 329.75 257.299 329.599 256.887C329.479 256.563 329.166 256.369 328.844 256.369M326.331 254.291C326.282 254.291 326.231 254.296 326.179 254.304C325.935 254.353 321.074 255.391 317.087 258.449C317.342 258.904 317.67 259.315 318.096 259.673C321.802 256.86 326.436 255.868 326.49 255.859C326.92 255.772 327.199 255.355 327.111 254.927C327.038 254.548 326.714 254.291 326.331 254.291ZM342.363 168.377C334.086 168.759 326.526 170.239 320.862 172.473C320.74 172.521 320.611 172.572 320.491 172.62C323.46 178.235 327.091 186.491 328.474 195.367C329.524 202.112 332.551 204.368 335.512 204.368C338.027 204.368 340.495 202.74 341.664 200.852C343.647 197.648 345.42 179.896 342.363 168.377M346.803 168.281C348.36 173.763 349.711 180.496 349.694 187.389C349.675 194.955 352.916 197.455 356.196 197.455C358.388 197.455 360.599 196.336 361.864 194.868C363.806 192.616 367.043 181.373 367.723 170.905C360.78 169.095 353.626 168.309 346.803 168.281ZM246.314 252.535C245.422 252.535 244.538 252.535 243.664 252.535L243.668 252.524C243.588 247.095 237.266 244.996 236.996 244.909C236.919 244.885 236.84 244.873 236.763 244.873C236.428 244.873 236.11 245.084 235.999 245.423C235.866 245.839 236.095 246.284 236.514 246.42C236.566 246.436 242.004 248.239 242.08 252.535C240.648 252.535 239.243 252.535 237.87 252.535C237.415 249.236 233.763 248.305 231.751 248.305C231.314 248.305 230.958 248.659 230.958 249.099C230.958 249.535 231.311 249.888 231.751 249.892C231.926 249.892 235.675 249.971 236.256 252.535C218.991 252.535 206.907 252.535 205.207 252.535C202.81 252.535 200.452 252.143 198.428 251.111C194.942 249.332 192.447 245.651 192.447 238.796C192.447 227.961 205.207 220.035 205.207 220.035C205.207 220.035 205.266 219.984 205.378 219.888C205.388 219.909 205.398 219.928 205.408 219.949L205.207 220.035C205.207 220.035 210.91 237.583 236.051 241.852L236.027 241.855C241.623 242.497 246.555 247.605 246.314 252.535M280.435 188.189C280.402 188.099 280.368 188.005 280.335 187.915C281.654 187.471 283.034 186.991 284.466 186.483L280.435 188.189" fill="url(#paint5_linear_1004_1062)"/>
<path d="M284.466 186.483L284.482 186.476C284.482 186.476 284.482 186.476 284.482 186.477C284.476 186.479 284.471 186.481 284.466 186.483Z" fill="#D2B5AC"/>
<path d="M252.6 252.535C250.46 252.535 248.361 252.535 246.313 252.535C246.555 247.605 241.623 242.497 236.027 241.855L236.051 241.852C210.909 237.583 205.207 220.035 205.207 220.035L205.408 219.949C211.875 233.312 224.24 237.136 235.713 237.137C241.076 237.137 246.241 236.303 250.521 235.216C264.728 231.612 286.208 220.915 282.52 196.445C282.092 193.609 281.385 190.848 280.435 188.189L284.465 186.483C284.471 186.481 284.476 186.479 284.481 186.477C284.58 186.719 303.428 232.821 264.229 241.067L264.219 241.08C254.196 243.556 252.6 252.535 252.6 252.535" fill="url(#paint6_linear_1004_1062)"/>
<path d="M203.02 188.36C201.09 184.088 198.599 177.837 196.891 170.837C195.738 166.111 194.94 161.04 194.914 156.011C194.912 155.856 194.912 155.704 194.914 155.551C194.915 155.195 194.92 154.84 194.93 154.485C194.986 152.364 196.718 150.737 198.748 150.737C198.992 150.737 199.239 150.76 199.488 150.808C202.536 151.403 206.948 152.704 211.795 155.551C212.172 155.772 212.552 156.003 212.934 156.244C215.671 157.967 218.52 160.191 221.322 163.06C219.854 163.963 218.454 164.965 217.127 166.059C212.048 160.515 206.583 158.685 203.486 158.081C203.336 158.052 203.19 158.037 203.044 158.037C201.836 158.037 200.807 159.007 200.772 160.268C200.56 168.245 203.796 176.548 205.791 180.873C204.664 183.271 203.736 185.779 203.02 188.36" fill="url(#paint7_linear_1004_1062)"/>
<path d="M205.791 180.873C203.796 176.548 200.56 168.245 200.772 160.268C200.807 159.007 201.836 158.037 203.044 158.037C203.19 158.037 203.336 158.052 203.486 158.081C206.583 158.685 212.048 160.515 217.127 166.059C212.34 170.003 208.495 175.121 205.791 180.873Z" fill="url(#paint8_linear_1004_1062)"/>
<path d="M269.942 171.383C268.083 169.455 266.071 167.693 263.936 166.121C263.628 161.369 262.516 152.527 258.526 145.616C258.096 144.871 257.324 144.467 256.54 144.467C256.036 144.467 255.526 144.633 255.099 144.987C252.664 146.993 248.732 151.208 246.91 158.503C245.223 158.175 243.514 157.96 241.794 157.867C241.914 157.445 242.036 157.031 242.164 156.623C242.278 156.26 242.394 155.903 242.514 155.551C245.867 145.635 251.503 139.692 255.146 136.688C255.863 136.096 256.72 135.815 257.568 135.815C258.886 135.815 260.183 136.495 260.906 137.747C264.116 143.308 266.218 149.612 267.594 155.551C267.703 156.021 267.807 156.491 267.907 156.956C269.038 162.212 269.611 167.105 269.902 170.837C269.902 170.848 269.903 170.856 269.903 170.865C269.916 171.04 269.93 171.213 269.942 171.383" fill="url(#paint9_linear_1004_1062)"/>
<path d="M263.936 166.121C258.818 162.352 252.999 159.688 246.91 158.503C248.732 151.208 252.664 146.993 255.099 144.987C255.526 144.633 256.036 144.467 256.54 144.467C257.324 144.467 258.096 144.871 258.526 145.616C262.516 152.527 263.628 161.369 263.936 166.121Z" fill="url(#paint10_linear_1004_1062)"/>
<path d="M235.714 237.137C224.24 237.136 211.875 233.312 205.408 219.949C205.398 219.928 205.388 219.909 205.378 219.888C204.848 218.787 204.358 217.621 203.911 216.388C200.611 207.272 200.518 197.377 203.02 188.36C203.736 185.779 204.664 183.271 205.791 180.873C208.495 175.121 212.34 170.003 217.127 166.059C218.454 164.965 219.854 163.963 221.322 163.06C224.327 161.213 227.618 159.792 231.16 158.893C234.048 158.161 236.955 157.813 239.84 157.813C240.492 157.813 241.144 157.831 241.794 157.867C243.514 157.96 245.223 158.175 246.91 158.503C252.999 159.688 258.818 162.352 263.936 166.121C266.071 167.693 268.083 169.455 269.942 171.383C274.451 176.055 278.064 181.696 280.335 187.915C280.368 188.005 280.402 188.099 280.435 188.189C281.386 190.848 282.092 193.609 282.52 196.445C286.208 220.915 264.728 231.612 250.522 235.216C246.242 236.303 241.076 237.137 235.714 237.137M241.332 219.847C240.97 219.847 240.632 220.101 240.555 220.477C240.466 220.907 240.742 221.325 241.167 221.415C241.278 221.439 242.378 221.66 243.922 221.66C244.951 221.66 246.178 221.561 247.442 221.241C249.09 220.823 250.803 220.025 252.22 218.573C252.524 218.261 252.519 217.759 252.204 217.452C252.052 217.301 251.854 217.227 251.655 217.227C251.45 217.227 251.242 217.307 251.084 217.468C248.982 219.627 245.975 220.063 243.891 220.063C242.498 220.063 241.516 219.868 241.492 219.863C241.439 219.852 241.386 219.847 241.332 219.847M245.88 199.22C244.47 199.22 243.004 199.399 241.53 199.772C234.182 201.637 229.371 207.673 230.788 213.256C231.491 216.029 233.29 216.953 235.82 216.953C238.388 216.953 241.71 216.003 245.41 215.064C252.759 213.199 258.819 212.088 257.402 206.505C256.27 202.041 251.503 199.22 245.88 199.22ZM222.176 200.464C221.507 200.464 220.826 200.547 220.147 200.719C215.742 201.837 213.076 206.315 214.194 210.72C215.139 214.448 218.488 216.929 222.166 216.929C222.836 216.929 223.516 216.847 224.195 216.675C228.602 215.556 231.267 211.079 230.148 206.673C229.203 202.945 225.854 200.464 222.176 200.464ZM262.808 190.156C262.139 190.156 261.458 190.239 260.778 190.411C256.372 191.528 253.707 196.007 254.824 200.413C255.771 204.139 259.12 206.62 262.798 206.62C263.467 206.62 264.147 206.539 264.827 206.365C269.232 205.249 271.898 200.771 270.779 196.364C269.835 192.637 266.486 190.156 262.808 190.156" fill="url(#paint11_linear_1004_1062)"/>
<path d="M257.402 206.505C258.819 212.088 252.759 213.199 245.41 215.064C238.06 216.928 232.204 218.84 230.788 213.256C229.371 207.673 234.182 201.637 241.53 199.772C248.88 197.908 255.986 200.921 257.402 206.505Z" fill="#FFFAF4"/>
<path d="M258.82 184.255C254.046 183.963 249.459 186.084 246.608 189.932C245.295 191.705 247.827 194.084 249.159 192.285C251.526 189.091 254.938 187.481 258.916 187.724C261.15 187.861 261.034 184.389 258.82 184.255Z" fill="#7A3A2F"/>
<path d="M219.946 194.117C224.004 191.584 229.047 191.263 233.387 193.285C235.387 194.219 234.295 197.517 232.267 196.572C228.663 194.892 224.896 195.103 221.516 197.213C219.618 198.399 218.064 195.292 219.946 194.117" fill="#7A3A2F"/>
<path d="M243.926 209.215C240.012 210.208 236.762 208.116 236.538 205.639C236.315 203.161 239.178 202.588 242.059 201.859C244.94 201.127 247.731 200.265 248.716 202.549C249.7 204.833 247.84 208.223 243.926 209.215" fill="#7A3A2F"/>
<path d="M222.166 216.929C218.488 216.929 215.139 214.448 214.194 210.72C213.076 206.315 215.742 201.837 220.147 200.719C220.826 200.547 221.507 200.464 222.176 200.464C225.854 200.464 229.203 202.945 230.148 206.673C231.267 211.079 228.602 215.556 224.195 216.675C223.516 216.847 222.836 216.929 222.166 216.929Z" fill="url(#paint12_linear_1004_1062)"/>
<path d="M262.797 206.62C259.12 206.62 255.771 204.139 254.824 200.413C253.707 196.007 256.372 191.528 260.777 190.411C261.457 190.239 262.139 190.156 262.808 190.156C266.485 190.156 269.835 192.637 270.779 196.364C271.897 200.771 269.232 205.249 264.827 206.365C264.147 206.539 263.467 206.62 262.797 206.62" fill="url(#paint13_linear_1004_1062)"/>
<path d="M208.576 213.404C208.383 213.453 208.175 213.425 207.995 213.308C207.659 213.087 207.563 212.636 207.783 212.296C211.09 207.22 217.623 207.251 217.903 207.255C218.306 207.259 218.63 207.591 218.624 207.996C218.62 208.399 218.31 208.737 217.883 208.717C217.83 208.717 211.868 208.707 209.008 213.096C208.906 213.256 208.746 213.361 208.576 213.404" fill="#7A3A2F"/>
<path d="M213.84 219.336C213.699 219.372 213.551 219.367 213.403 219.312C213.026 219.172 212.832 218.751 212.975 218.369C214.542 214.179 219.148 211.84 219.344 211.743C219.727 211.552 220.148 211.711 220.326 212.072C220.506 212.431 220.359 212.871 219.996 213.052C219.954 213.073 215.707 215.237 214.346 218.885C214.258 219.119 214.066 219.279 213.84 219.336Z" fill="#7A3A2F"/>
<path d="M276.996 196.045C276.827 196.088 276.638 196.073 276.47 195.981C271.846 193.471 266.634 196.333 266.58 196.361C266.242 196.573 265.784 196.436 265.586 196.083C265.388 195.729 265.514 195.281 265.867 195.087C266.11 194.949 271.848 191.816 277.164 194.693C277.522 194.887 277.654 195.329 277.462 195.685C277.359 195.873 277.19 195.996 276.996 196.045" fill="#7A3A2F"/>
<path d="M275.198 203.769C274.972 203.827 274.726 203.777 274.538 203.611C271.604 201.056 266.838 201.179 266.791 201.181C266.384 201.195 266.046 200.877 266.034 200.475C266.016 200.071 266.31 199.725 266.739 199.719C266.958 199.711 272.124 199.569 275.496 202.512C275.804 202.776 275.835 203.237 275.567 203.541C275.466 203.66 275.338 203.735 275.198 203.769" fill="#7A3A2F"/>
<path d="M243.922 221.66C242.378 221.66 241.278 221.439 241.167 221.415C240.742 221.325 240.466 220.907 240.555 220.477C240.632 220.101 240.97 219.847 241.332 219.847C241.386 219.847 241.439 219.852 241.492 219.863C241.516 219.868 242.498 220.063 243.891 220.063C245.975 220.063 248.982 219.627 251.084 217.468C251.242 217.307 251.45 217.227 251.655 217.227C251.854 217.227 252.052 217.301 252.204 217.452C252.519 217.759 252.524 218.261 252.22 218.573C250.803 220.025 249.09 220.823 247.442 221.241C246.178 221.561 244.951 221.66 243.922 221.66" fill="url(#paint14_linear_1004_1062)"/>
<path d="M335.512 204.368C332.551 204.368 329.524 202.112 328.474 195.367C327.091 186.491 323.46 178.235 320.491 172.62C320.611 172.572 320.74 172.521 320.862 172.473C326.526 170.239 334.086 168.759 342.363 168.377C345.42 179.896 343.647 197.648 341.664 200.852C340.495 202.74 338.027 204.368 335.512 204.368" fill="url(#paint15_linear_1004_1062)"/>
<path d="M356.196 197.455C352.916 197.455 349.675 194.955 349.694 187.389C349.711 180.496 348.36 173.763 346.803 168.281C353.626 168.309 360.78 169.095 367.723 170.905C367.043 181.373 363.806 192.616 361.864 194.868C360.599 196.336 358.388 197.455 356.196 197.455Z" fill="url(#paint16_linear_1004_1062)"/>
<path d="M292.754 183.444C292.754 183.443 292.754 183.443 292.754 183.443C299.756 180.808 307.302 177.835 314.355 175.045C307.307 177.833 299.751 180.812 292.754 183.444" fill="#F8A592"/>
<path d="M315.67 214.123C313.068 214.123 310.204 212.224 308.046 206.741C304.024 196.519 296.93 187.936 292.754 183.444C299.751 180.812 307.307 177.833 314.355 175.045C320.851 185.097 323.448 205.375 322.116 209.211C321.272 211.647 318.643 214.123 315.67 214.123Z" fill="url(#paint17_linear_1004_1062)"/>
<path d="M323.287 252.535C315.518 252.535 307.495 252.535 299.459 252.535C306.991 251.873 324.364 244.828 332.25 229.811C342.727 209.863 357.264 209.863 357.264 209.863C345.7 215.069 344.787 235.445 342.66 239.72C339.556 245.963 323.287 252.535 323.287 252.535" fill="url(#paint18_linear_1004_1062)"/>
<path d="M388.611 318.853C391.556 318.625 394.522 318.124 397.474 317.339C397.491 317.333 397.51 317.328 397.528 317.324C397.51 317.329 397.492 317.333 397.474 317.339C394.522 318.124 391.556 318.625 388.611 318.853ZM386.72 304.247C386.72 304.241 386.719 304.236 386.718 304.231C389.096 304.116 391.376 303.776 393.471 303.237C391.375 303.777 389.099 304.132 386.72 304.247ZM393.758 303.161C395.664 302.651 397.42 301.945 399.103 301.155C399.107 301.177 399.111 301.199 399.115 301.22C397.442 302.004 395.652 302.655 393.758 303.161" fill="#F8A592"/>
<path d="M385.436 318.987C387.363 313.841 387.359 308.568 386.72 304.247C389.099 304.132 391.375 303.777 393.471 303.237C393.55 303.217 393.628 303.196 393.707 303.176C393.724 303.171 393.74 303.167 393.758 303.161C395.652 302.655 397.442 302.004 399.115 301.22C399.892 305.728 400.19 311.148 399.168 316.827C398.623 316.995 398.084 317.175 397.528 317.324C397.51 317.328 397.491 317.333 397.474 317.339C394.522 318.124 391.556 318.625 388.611 318.853C387.55 318.935 386.494 318.975 385.436 318.987" fill="url(#paint19_linear_1004_1062)"/>
<path d="M379.735 303.867C375.382 303.176 370.93 301.591 366.774 298.805C366.772 298.796 366.771 298.787 366.768 298.777C370.931 301.568 375.379 303.156 379.735 303.847C379.735 303.853 379.735 303.86 379.735 303.867Z" fill="#F8A592"/>
<path d="M375.962 318.121C371.692 317.297 367.558 315.899 363.668 313.929C367.483 308.532 367.343 302.401 366.774 298.805C370.93 301.591 375.382 303.176 379.735 303.867C379.562 308.413 378.488 313.395 375.962 318.121Z" fill="url(#paint20_linear_1004_1062)"/>
<path d="M404.619 297.847C404.616 297.841 404.614 297.837 404.611 297.832C408.332 294.903 411.061 291.115 412.595 286.744C412.604 286.757 412.613 286.771 412.623 286.784C411.087 291.148 408.336 294.923 404.619 297.847Z" fill="#F8A592"/>
<path d="M408.646 312.733C408.707 306.917 406.732 301.703 404.619 297.847C408.336 294.923 411.087 291.148 412.623 286.784C415.163 290.407 418.39 296.029 420.131 302.923C417.014 306.805 413.135 310.131 408.646 312.733" fill="url(#paint21_linear_1004_1062)"/>
<path d="M237.87 252.535C237.327 252.535 236.79 252.535 236.256 252.535C235.675 249.971 231.926 249.892 231.751 249.892C231.311 249.888 230.958 249.535 230.958 249.099C230.958 248.659 231.314 248.305 231.751 248.305C233.763 248.305 237.415 249.236 237.87 252.535Z" fill="url(#paint22_linear_1004_1062)"/>
<path d="M243.664 252.535C243.131 252.535 242.607 252.535 242.08 252.535C242.004 248.239 236.566 246.436 236.514 246.42C236.095 246.284 235.866 245.839 235.999 245.423C236.11 245.084 236.428 244.873 236.763 244.873C236.84 244.873 236.919 244.885 236.996 244.909C237.266 244.996 243.588 247.095 243.668 252.524L243.664 252.535" fill="url(#paint23_linear_1004_1062)"/>
<path d="M256.591 252.535C256.059 252.535 255.534 252.535 255.006 252.535C255.918 247.543 260.268 245.615 260.476 245.528C260.574 245.485 260.676 245.465 260.778 245.465C261.084 245.465 261.383 245.649 261.511 245.949C261.682 246.353 261.495 246.816 261.092 246.991C260.924 247.061 257.459 248.589 256.591 252.535" fill="url(#paint24_linear_1004_1062)"/>
<path d="M261.841 252.535C261.259 252.535 260.68 252.535 260.103 252.535C261.073 249.796 263.355 248.477 263.483 248.409C263.604 248.341 263.737 248.308 263.868 248.308C264.144 248.308 264.412 248.452 264.557 248.708C264.773 249.089 264.64 249.573 264.26 249.789C264.168 249.84 262.688 250.741 261.841 252.535Z" fill="url(#paint25_linear_1004_1062)"/>
<path d="M323.97 261.732C323.358 261.665 322.796 261.559 322.24 261.444C324.452 257.989 328.386 256.485 328.586 256.413C328.67 256.383 328.758 256.369 328.844 256.369C329.166 256.369 329.479 256.563 329.599 256.887C329.75 257.299 329.536 257.753 329.127 257.903C329.086 257.917 325.962 259.121 323.97 261.732" fill="url(#paint26_linear_1004_1062)"/>
<path d="M318.096 259.673C317.67 259.315 317.342 258.904 317.087 258.449C321.074 255.391 325.935 254.353 326.179 254.304C326.231 254.296 326.282 254.291 326.331 254.291C326.714 254.291 327.038 254.548 327.111 254.927C327.199 255.355 326.92 255.772 326.49 255.859C326.436 255.868 321.802 256.86 318.096 259.673Z" fill="url(#paint27_linear_1004_1062)"/>
<defs>
<radialGradient id="paint0_radial_1004_1062" cx="0" cy="0" r="1" gradientUnits="userSpaceOnUse" gradientTransform="translate(267.727 252.537) scale(262.004 12.8332)">
<stop stop-color="#E0E0B9"/>
<stop offset="1" stop-color="#FFFAF4"/>
</radialGradient>
<linearGradient id="paint1_linear_1004_1062" x1="129.119" y1="179.268" x2="122.495" y2="217.271" gradientUnits="userSpaceOnUse">
<stop stop-color="#90D579"/>
<stop offset="1" stop-color="#6AC97B"/>
</linearGradient>
<linearGradient id="paint2_linear_1004_1062" x1="107.333" y1="182.571" x2="110.556" y2="216.237" gradientUnits="userSpaceOnUse">
<stop stop-color="#90D579"/>
<stop offset="0.113442" stop-color="#90D579"/>
<stop offset="1" stop-color="#6AC97B"/>
</linearGradient>
<linearGradient id="paint3_linear_1004_1062" x1="97.0896" y1="220.936" x2="136.439" y2="220.936" gradientUnits="userSpaceOnUse">
<stop stop-color="#704F37"/>
<stop offset="1" stop-color="#996C4A"/>
</linearGradient>
<linearGradient id="paint4_linear_1004_1062" x1="393.651" y1="305.044" x2="374.408" y2="237.239" gradientUnits="userSpaceOnUse">
<stop stop-color="#FAD548"/>
<stop offset="1" stop-color="#E78736"/>
</linearGradient>
<linearGradient id="paint5_linear_1004_1062" x1="300.759" y1="220.035" x2="300.759" y2="301.714" gradientUnits="userSpaceOnUse">
<stop stop-color="#FAD548"/>
<stop offset="1" stop-color="#E78736"/>
</linearGradient>
<linearGradient id="paint6_linear_1004_1062" x1="300.759" y1="220.035" x2="300.759" y2="301.714" gradientUnits="userSpaceOnUse">
<stop stop-color="#D1A243"/>
<stop offset="1" stop-color="#C37036"/>
</linearGradient>
<linearGradient id="paint7_linear_1004_1062" x1="206.756" y1="163.517" x2="235.534" y2="221.537" gradientUnits="userSpaceOnUse">
<stop stop-color="#FAD548"/>
<stop offset="1" stop-color="#E78736"/>
</linearGradient>
<linearGradient id="paint8_linear_1004_1062" x1="206.756" y1="163.517" x2="235.534" y2="221.537" gradientUnits="userSpaceOnUse">
<stop stop-color="#F89A48"/>
<stop offset="1" stop-color="#F57740"/>
</linearGradient>
<linearGradient id="paint9_linear_1004_1062" x1="254.816" y1="151.325" x2="257.179" y2="216.047" gradientUnits="userSpaceOnUse">
<stop stop-color="#FAD548"/>
<stop offset="1" stop-color="#E78736"/>
</linearGradient>
<linearGradient id="paint10_linear_1004_1062" x1="254.816" y1="151.325" x2="257.179" y2="216.047" gradientUnits="userSpaceOnUse">
<stop stop-color="#F89A48"/>
<stop offset="1" stop-color="#F57740"/>
</linearGradient>
<linearGradient id="paint11_linear_1004_1062" x1="238.174" y1="186.541" x2="267.669" y2="302.8" gradientUnits="userSpaceOnUse">
<stop stop-color="#FAD548"/>
<stop offset="1" stop-color="#E78736"/>
</linearGradient>
<linearGradient id="paint12_linear_1004_1062" x1="238.174" y1="186.541" x2="267.668" y2="302.8" gradientUnits="userSpaceOnUse">
<stop stop-color="#F8A24F"/>
<stop offset="1" stop-color="#F68345"/>
</linearGradient>
<linearGradient id="paint13_linear_1004_1062" x1="238.173" y1="186.541" x2="267.668" y2="302.8" gradientUnits="userSpaceOnUse">
<stop stop-color="#F8A24F"/>
<stop offset="1" stop-color="#F68345"/>
</linearGradient>
<linearGradient id="paint14_linear_1004_1062" x1="238.174" y1="186.541" x2="267.668" y2="302.8" gradientUnits="userSpaceOnUse">
<stop stop-color="#D1A243"/>
<stop offset="1" stop-color="#C37036"/>
</linearGradient>
<linearGradient id="paint15_linear_1004_1062" x1="300.759" y1="220.035" x2="300.759" y2="301.714" gradientUnits="userSpaceOnUse">
<stop stop-color="#F89A48"/>
<stop offset="1" stop-color="#F57740"/>
</linearGradient>
<linearGradient id="paint16_linear_1004_1062" x1="300.759" y1="220.035" x2="300.759" y2="301.713" gradientUnits="userSpaceOnUse">
<stop stop-color="#F89A48"/>
<stop offset="1" stop-color="#F57740"/>
</linearGradient>
<linearGradient id="paint17_linear_1004_1062" x1="300.759" y1="220.035" x2="300.759" y2="301.714" gradientUnits="userSpaceOnUse">
<stop stop-color="#F89A48"/>
<stop offset="1" stop-color="#F57740"/>
</linearGradient>
<linearGradient id="paint18_linear_1004_1062" x1="300.759" y1="220.035" x2="300.759" y2="301.714" gradientUnits="userSpaceOnUse">
<stop stop-color="#D1A243"/>
<stop offset="1" stop-color="#C37036"/>
</linearGradient>
<linearGradient id="paint19_linear_1004_1062" x1="393.651" y1="305.044" x2="374.408" y2="237.239" gradientUnits="userSpaceOnUse">
<stop stop-color="#F89A48"/>
<stop offset="1" stop-color="#F57740"/>
</linearGradient>
<linearGradient id="paint20_linear_1004_1062" x1="393.651" y1="305.044" x2="374.408" y2="237.239" gradientUnits="userSpaceOnUse">
<stop stop-color="#F89A48"/>
<stop offset="1" stop-color="#F57740"/>
</linearGradient>
<linearGradient id="paint21_linear_1004_1062" x1="393.651" y1="305.044" x2="374.408" y2="237.239" gradientUnits="userSpaceOnUse">
<stop stop-color="#F89A48"/>
<stop offset="1" stop-color="#F57740"/>
</linearGradient>
<linearGradient id="paint22_linear_1004_1062" x1="300.759" y1="220.035" x2="300.759" y2="301.714" gradientUnits="userSpaceOnUse">
<stop stop-color="#D1A243"/>
<stop offset="1" stop-color="#C37036"/>
</linearGradient>
<linearGradient id="paint23_linear_1004_1062" x1="300.759" y1="220.035" x2="300.759" y2="301.714" gradientUnits="userSpaceOnUse">
<stop stop-color="#D1A243"/>
<stop offset="1" stop-color="#C37036"/>
</linearGradient>
<linearGradient id="paint24_linear_1004_1062" x1="300.759" y1="220.035" x2="300.759" y2="301.714" gradientUnits="userSpaceOnUse">
<stop stop-color="#D1A243"/>
<stop offset="1" stop-color="#C37036"/>
</linearGradient>
<linearGradient id="paint25_linear_1004_1062" x1="300.759" y1="220.035" x2="300.759" y2="301.714" gradientUnits="userSpaceOnUse">
<stop stop-color="#D1A243"/>
<stop offset="1" stop-color="#C37036"/>
</linearGradient>
<linearGradient id="paint26_linear_1004_1062" x1="300.759" y1="220.035" x2="300.759" y2="301.714" gradientUnits="userSpaceOnUse">
<stop stop-color="#D1A243"/>
<stop offset="1" stop-color="#C37036"/>
</linearGradient>
<linearGradient id="paint27_linear_1004_1062" x1="300.759" y1="220.035" x2="300.759" y2="301.714" gradientUnits="userSpaceOnUse">
<stop stop-color="#D1A243"/>
<stop offset="1" stop-color="#C37036"/>
</linearGradient>
</defs>
</svg>
